# xmcd
#
# Track frame offsets:
#	150
#	28825
#	47932
#	64417
#	85475
#	109417
#	127785
#	144797
#	166652
#	181270
#
# Disc length: 2687 seconds
#
# Revision: 1
# Processed by: cddbd v1.5.2PL0 Copyright (c) Steve Scherf et al.
# Submitted via: audiograbber 1.83.01
#
DISCID=850a7d0a
DTITLE=Robicheaux, Coco - Louisiana medicine man
DYEAR=1997
DGENRE=Rock
TTITLE0=Cottonmouth
TTITLE1=Tumblin' out
TTITLE2=Weight of the world
TTITLE3=Love of a woman
TTITLE4=Juanita
TTITLE5=Where you go to pray
TTITLE6=When the nightingale sings
TTITLE7=3.33 blues
TTITLE8=Whatever I want
TTITLE9=Louisiana medicine man
EXTD=
EXTT0=
EXTT1=
EXTT2=
EXTT3=
EXTT4=
EXTT5=
EXTT6=
EXTT7=
EXTT8=
EXTT9=
PLAYORDER=
